<svg width="2884" height="1000" viewBox="0 0 2884 1000" fill="none" xmlns="http://www.w3.org/2000/svg">
<g clip-path="url(#clip0_306_126)">
<path d="M781.492 414.231C754.271 391.008 715.707 379.114 664.667 379.114C639.715 379.114 615.329 382.512 590.943 388.742C566.557 394.973 546.141 403.469 529.128 414.797L565.423 487.864C575.631 479.934 588.675 473.137 603.987 468.606C618.731 464.075 634.043 461.243 648.788 461.243C690.187 461.243 711.738 477.668 714.006 509.953H652.758C606.255 509.953 571.661 518.45 549.544 534.309C526.859 550.168 516.084 572.825 516.084 601.711C516.084 619.836 520.054 636.262 529.128 650.422C538.202 664.582 551.245 675.911 568.826 683.84C585.839 692.336 606.822 696.301 630.641 696.301C675.443 696.301 705.499 681.575 721.379 651.555V691.203H821.757V520.715C821.757 473.137 808.146 437.453 781.492 414.231ZM693.59 619.27C683.949 625.5 673.174 628.332 660.698 628.332C648.221 628.332 638.013 625.5 631.208 619.836C623.835 614.172 620.433 606.809 620.433 597.18C620.433 576.789 635.745 566.028 667.503 566.028H714.006V592.649C709.469 604.543 702.664 613.606 693.59 619.27Z" fill="white"/>
<path d="M1101.26 678.723L1074.77 603.308C1065.2 610.113 1054.49 612.948 1042.09 612.948C1031.95 612.948 1024.06 610.113 1018.43 603.875C1012.79 597.638 1009.97 589.133 1009.97 577.792V475.727H1079.85V395.209H1009.97V315.257H902.911V395.209H858.396V475.727H902.911V578.926C902.911 618.051 913.617 647.537 935.03 666.816C956.442 686.662 986.871 696.301 1026.88 696.301C1041.53 696.301 1055.05 695.167 1068.01 691.765C1080.97 688.93 1092.24 684.394 1101.26 678.723Z" fill="white"/>
<path d="M1435.58 413.291C1412.3 390.661 1381.63 379.346 1343.59 379.346C1325.42 379.346 1308.38 382.175 1292.48 387.832C1276.58 393.49 1262.38 401.976 1251.03 412.725V271.291H1143.13V691.067H1251.03V542.844C1251.03 519.083 1256.14 500.98 1267.49 488.534C1278.85 476.653 1293.62 470.43 1312.35 470.43C1345.86 470.43 1362.89 491.362 1362.89 533.227V691.067H1470.79V515.689C1470.79 470.43 1458.86 435.92 1435.58 413.291Z" fill="white"/>
<path d="M1538.11 384.09V691.067H1645.28V384.09H1538.11ZM1544.32 333.682C1556.16 345.01 1571.96 350.107 1591.7 350.107C1610.87 350.107 1626.67 345.01 1639.07 333.682C1650.92 322.355 1657.12 308.195 1657.12 291.204C1657.12 275.345 1650.92 261.752 1639.07 251.557C1626.67 241.363 1610.87 235.699 1591.7 235.699C1571.96 235.699 1556.16 241.362 1544.32 252.124C1531.91 263.451 1526.27 277.044 1526.27 292.903C1526.27 309.328 1531.91 322.921 1544.32 333.682Z" fill="white"/>
<path d="M1749.86 687.805C1774.89 693.469 1799.91 696.301 1826.07 696.301C1857.92 696.301 1885.79 692.336 1908.54 683.274C1931.29 674.778 1948.92 662.883 1960.87 647.59C1972.24 632.297 1978.5 614.739 1978.5 595.481C1978.5 572.258 1972.24 554.133 1959.73 541.106C1947.22 528.078 1933 519.016 1916.5 513.918C1899.44 509.387 1878.4 504.856 1853.37 500.891C1832.9 498.059 1818.68 495.227 1810.15 492.395C1801.05 489.563 1797.07 484.465 1797.07 477.102C1797.07 470.871 1801.05 465.774 1809.01 461.809C1816.97 457.844 1829.49 455.578 1846.55 455.578C1878.4 455.578 1907.97 463.508 1935.27 478.235L1967.69 405.168C1952.9 397.238 1934.14 390.442 1912.52 385.91C1890.34 381.379 1868.16 379.114 1845.98 379.114C1814.13 379.114 1787.4 383.645 1764.65 392.707C1741.9 401.77 1724.84 413.664 1713.46 428.957C1701.52 444.25 1695.83 461.809 1695.83 481.067C1695.83 504.856 1702.09 523.547 1714.6 536.575C1727.11 550.168 1741.9 559.231 1758.96 563.762C1776.02 568.86 1797.07 572.825 1822.09 575.657C1841.43 578.489 1855.08 581.321 1864.18 584.153C1873.28 586.985 1877.83 591.516 1877.83 598.313C1877.83 605.11 1873.85 610.774 1866.45 614.172C1859.06 617.571 1846.55 619.27 1829.49 619.27C1810.15 619.27 1791.38 617.004 1772.04 611.907C1752.71 606.809 1735.64 600.012 1721.99 590.95L1689.57 664.582C1704.36 674.211 1724.84 682.141 1749.86 687.805Z" fill="white"/>
<path d="M2024.89 384.09V691.067H2132.05V384.09H2024.89ZM2031.09 333.682C2042.94 345.01 2058.73 350.107 2078.47 350.107C2097.65 350.107 2113.44 345.01 2125.85 333.682C2137.69 322.355 2143.9 308.195 2143.9 291.204C2143.9 275.345 2137.69 261.752 2125.85 251.557C2113.44 241.363 2097.65 235.699 2078.47 235.699C2058.73 235.699 2042.94 241.362 2031.09 252.124C2018.68 263.451 2013.04 277.044 2013.04 292.903C2013.04 309.328 2018.68 322.921 2031.09 333.682Z" fill="white"/>
<path d="M2450.13 414.231C2422.91 391.008 2384.34 379.114 2333.3 379.114C2308.35 379.114 2283.97 382.512 2259.58 388.742C2235.19 394.973 2214.78 403.469 2197.77 414.797L2234.06 487.864C2244.27 479.934 2257.31 473.137 2272.62 468.606C2287.37 464.075 2302.68 461.243 2317.43 461.243C2358.82 461.243 2380.37 477.668 2382.64 509.953H2321.4C2274.89 509.953 2240.3 518.45 2218.18 534.309C2195.5 550.168 2184.72 572.825 2184.72 601.711C2184.72 619.836 2188.69 636.262 2197.77 650.422C2206.84 664.582 2219.88 675.911 2237.46 683.84C2254.48 692.336 2275.46 696.301 2299.28 696.301C2344.08 696.301 2374.14 681.575 2390.02 651.555V691.203H2490.39V520.715C2490.39 473.137 2476.78 437.453 2450.13 414.231ZM2362.23 619.27C2352.59 625.5 2341.81 628.332 2329.33 628.332C2316.86 628.332 2306.65 625.5 2299.85 619.836C2292.47 614.172 2289.07 606.809 2289.07 597.18C2289.07 576.789 2304.38 566.028 2336.14 566.028H2382.64V592.649C2378.11 604.543 2371.3 613.606 2362.23 619.27Z" fill="white"/>
<path d="M2848.91 413.083C2825.7 390.437 2795.13 379.114 2757.21 379.114C2737.39 379.114 2719.28 382.51 2702.87 389.304C2685.88 396.098 2671.73 405.157 2659.85 417.612V384.209H2557.39V691.067H2664.94V542.733C2664.94 518.955 2670.03 500.838 2681.36 488.382C2692.68 476.493 2707.39 470.265 2726.07 470.265C2759.47 470.265 2776.45 491.213 2776.45 533.109V691.067H2884V515.558C2884 470.265 2872.11 435.729 2848.91 413.083Z" fill="white"/>
<path d="M459.867 445.491L357.36 628.996L357.926 690.73H461L459.867 445.491ZM0 690.73H103.64V635.792L0 450.589V690.73ZM367.554 294.27L231.633 523.084L92.3133 294.27H0L103.64 486.27L205.015 651.65H254.853L356.794 480.606L457.036 294.27H367.554Z" fill="white"/>
</g>
<defs>
<clipPath id="clip0_306_126">
<rect width="2884" height="1000" fill="white"/>
</clipPath>
</defs>
</svg>
